<svg width="123" height="31" viewBox="0 0 123 31" fill="none" xmlns="http://www.w3.org/2000/svg">
<path d="M31.5234 18.0798V22.7198H34.9434V18.0798L39.8034 8.67985H35.9634L33.2634 14.5598L30.5434 8.67985H26.6634L31.5234 18.0798ZM40.5013 17.1198C40.5013 20.6398 42.6813 22.8798 45.4013 22.8798C47.0613 22.8798 48.2413 22.1198 48.8613 21.1398V22.7198H52.2813V11.5598H48.8613V13.1398C48.2613 12.1598 47.0813 11.3998 45.4213 11.3998C42.6813 11.3998 40.5013 13.5998 40.5013 17.1198ZM48.8613 17.1398C48.8613 18.9198 47.7213 19.8998 46.4213 19.8998C45.1413 19.8998 43.9813 18.8998 43.9813 17.1198C43.9813 15.3398 45.1413 14.3798 46.4213 14.3798C47.7213 14.3798 48.8613 15.3598 48.8613 17.1398ZM58.1756 17.5398C58.1756 15.6198 59.1156 15.0598 60.7356 15.0598H61.6756V11.4398C60.1756 11.4398 58.9556 12.2398 58.1756 13.4198V11.5598H54.7556V22.7198H58.1756V17.5398ZM62.6303 17.1198C62.6303 20.6398 64.8103 22.8798 67.5503 22.8798C69.1903 22.8798 70.3703 22.1398 70.9903 21.1198V22.7198H74.4103V7.91985H70.9903V13.0998C70.3103 12.0798 69.0303 11.3998 67.5503 11.3998C64.8103 11.3998 62.6303 13.5998 62.6303 17.1198ZM70.9903 17.1398C70.9903 18.9198 69.8503 19.8998 68.5503 19.8998C67.2703 19.8998 66.1103 18.8998 66.1103 17.1198C66.1103 15.3398 67.2703 14.3798 68.5503 14.3798C69.8503 14.3798 70.9903 15.3598 70.9903 17.1398ZM90.4828 18.9198C90.4828 13.7598 82.9628 15.9998 82.9628 12.3998C82.9628 10.8998 84.1428 10.1198 85.6428 10.1598C87.3428 10.1798 88.2228 11.2398 88.3428 12.1798H90.3428C90.1228 10.0598 88.3828 8.59985 85.7228 8.59985C82.9628 8.59985 81.1028 10.1598 81.1028 12.4598C81.1028 17.6398 88.6428 15.2398 88.6428 18.9998C88.6428 20.3198 87.6028 21.3198 85.8428 21.3198C83.9028 21.3198 83.0828 20.1598 82.9628 18.9998H81.0228C81.0628 21.2998 83.0428 22.8598 85.8428 22.8598C88.8628 22.8598 90.4828 20.8998 90.4828 18.9198ZM92.481 17.1998C92.481 20.5998 94.741 22.8998 97.661 22.8998C99.681 22.8998 101.101 21.8598 101.761 20.6798V22.7198H103.601V11.7598H101.761V13.7598C101.121 12.6198 99.721 11.5798 97.681 11.5798C94.741 11.5798 92.481 13.7798 92.481 17.1998ZM101.761 17.2198C101.761 19.7998 100.041 21.2998 98.041 21.2998C96.041 21.2998 94.341 19.7798 94.341 17.1998C94.341 14.6198 96.041 13.1598 98.041 13.1598C100.041 13.1598 101.761 14.6798 101.761 17.2198ZM106.677 22.7198H108.497V7.91985H106.677V22.7198ZM116.259 13.1198C118.139 13.1198 119.739 14.2998 119.719 16.4398H112.799C112.999 14.2998 114.479 13.1198 116.259 13.1198ZM121.379 19.3398H119.419C119.019 20.5198 117.979 21.3598 116.339 21.3598C114.479 21.3598 112.919 20.1398 112.779 17.9198H121.539C121.579 17.5398 121.599 17.2198 121.599 16.8198C121.599 13.8198 119.519 11.5798 116.339 11.5798C113.139 11.5798 110.919 13.7598 110.919 17.2198C110.919 20.6998 113.219 22.8998 116.339 22.8998C119.059 22.8998 120.819 21.3398 121.379 19.3398Z" fill="#055052"/>
<g clip-path="url(#clip0)">
<path d="M16.8277 11.7136H1.84884C0.706518 11.7136 -0.161262 12.7295 0.0268848 13.8463C0.343663 15.7298 2.22897 16.9323 4.09125 16.4395L6.31061 15.8497C7.51437 15.5301 8.6183 16.6221 8.29384 17.815L8.17865 18.2393C7.57005 20.49 9.28065 22.7008 11.6325 22.7008H15.5951C16.4994 22.7008 17.2692 22.0539 17.4171 21.1711L18.6496 13.8463C18.8378 12.7314 17.97 11.7136 16.8277 11.7136Z" fill="#003638"/>
<path d="M5.63481 17.524L1.95059 18.5019C1.24408 18.6902 1.15 19.6453 1.8066 19.9649L3.12939 20.608C3.28682 20.6841 3.41545 20.8116 3.49224 20.9676L4.14116 22.2784C4.46369 22.9291 5.42747 22.8359 5.61754 22.1357L6.60435 18.4847C6.76178 17.9026 6.22229 17.368 5.63481 17.524Z" fill="#003638"/>
<path d="M12.7172 10.8498C12.3294 10.8498 12.0126 10.5378 12.0126 10.1516V10.1287C12.0126 8.66758 10.8127 7.47659 9.33632 7.47659C7.85994 7.47659 6.66195 8.66758 6.66195 10.1306V10.1535C6.66195 10.5378 6.34709 10.8517 5.95735 10.8517C5.56954 10.8517 5.25276 10.5397 5.25276 10.1535V10.1306C5.25468 7.89895 7.08624 6.08392 9.33824 6.08392C11.5902 6.08392 13.4199 7.89895 13.4199 10.1306V10.1535C13.4199 10.5378 13.105 10.8498 12.7172 10.8498Z" fill="#003638"/>
<path d="M12.2756 26.0055C12.8153 26.0055 13.2529 25.572 13.2529 25.0371C13.2529 24.5023 12.8153 24.0687 12.2756 24.0687C11.7359 24.0687 11.2984 24.5023 11.2984 25.0371C11.2984 25.572 11.7359 26.0055 12.2756 26.0055Z" fill="#003638"/>
<path d="M7.06704 26.0055C7.60674 26.0055 8.04425 25.572 8.04425 25.0371C8.04425 24.5023 7.60674 24.0687 7.06704 24.0687C6.52734 24.0687 6.08983 24.5023 6.08983 25.0371C6.08983 25.572 6.52734 26.0055 7.06704 26.0055Z" fill="#003638"/>
</g>
<defs>
<clipPath id="clip0">
<rect width="18.6765" height="19.9216" fill="white" transform="translate(0 6.08398)"/>
</clipPath>
</defs>
</svg>
