<svg width="234" height="10" viewBox="0 0 234 10" fill="none" xmlns="http://www.w3.org/2000/svg">
<g clip-path="url(#clip0)">
<path fill-rule="evenodd" clip-rule="evenodd" d="M149.758 0.239437C155.943 -0.0041992 163.199 0.224892 169.792 0.0048917C169.792 0.0630735 169.792 0.121255 169.792 0.179437C170.322 0.188528 170.229 0.0048917 170.73 0.0048917C171.411 -0.0514719 170.817 0.290346 171.667 0.179437C171.929 0.159437 171.685 0.0758008 171.481 0.0630735C171.859 0.0485281 172.617 0.0539826 172.978 0.239437C173.607 0.215801 172.477 0.0121644 173.35 0.0630735C176.361 0.255801 179.879 -0.167836 183.274 0.297619C188.987 0.22671 195.475 0.299437 201.998 0.413983C203.407 0.439437 204.665 0.521255 205.742 0.472164C206.715 0.428528 208.543 0.515801 209.673 0.530346C210.925 0.54671 212.265 0.723073 213.232 0.704892C212.655 0.715801 215.87 0.468528 215.48 0.763073C217.879 0.54671 220.872 0.877619 223.342 0.821255C223.744 0.793983 223.703 0.904892 223.714 0.995801C224.256 0.761255 225.357 1.03944 225.776 0.821255C225.992 1.18489 227.034 0.688528 227.459 1.05398C228.478 0.764892 229.853 1.10489 231.204 1.17035C232.159 1.21762 233.772 1.04126 234.011 1.46307C232.98 1.4758 231.553 1.69762 228.397 1.46307C228.909 1.60489 226.801 1.65398 226.714 1.40489C225.922 1.78853 223.61 1.33398 222.969 1.7558C222.34 1.70307 222.946 1.62489 222.596 1.52126C220.168 1.70853 218.59 1.42126 216.231 1.46307C217.594 1.85944 219.341 1.93035 221.286 1.87216C221.915 1.8758 221.315 2.00489 221.845 2.10671C222.509 2.04853 222.189 2.00489 222.41 1.87216C225.13 2.19216 230.01 2.03216 232.893 2.39762C230.581 2.36489 227.349 2.5958 225.403 2.28126C222.282 2.38671 217.058 2.38126 213.051 2.22307C212.783 2.21216 212.178 2.27398 212.678 2.10671C211.91 2.26671 211.024 2.18307 209.871 2.16489C191.509 1.8758 170.258 2.14671 152.961 2.39944C133.58 2.68126 115.363 3.14307 96.0511 3.91944C66.0178 5.12671 38.0752 7.42307 11.2334 9.47398C8.79321 9.65944 6.42292 9.9158 3.93034 9.99944C3.26643 9.96489 2.64328 9.69762 3.17907 9.47398C2.19485 9.43944 1.76389 9.57762 0.744723 9.53216C0.377824 9.39216 0.220582 9.19035 -0.00654602 9.00671C0.750547 8.71762 1.73477 8.49944 2.98688 8.36307C3.33631 8.25216 3.01018 8.2158 2.98688 8.07034C9.39888 7.0358 16.8184 6.13398 24.7038 5.73216C37.5394 5.07762 50.6663 3.94853 63.269 3.27762C66.3032 3.1158 68.9879 3.08671 72.2551 2.98489C76.3143 2.85944 81.5149 2.47398 86.4826 2.45944C89.5576 2.45035 93.1275 2.12489 96.7791 1.99216C114.198 1.36126 134.337 0.677619 151.628 0.413983C151.272 0.0121644 150.323 0.390346 149.758 0.239437ZM215.841 1.40853C215.526 1.40853 215.218 1.40853 214.903 1.40853C214.723 1.64307 216.027 1.64307 215.841 1.40853Z" fill="#055052"/>
<path fill-rule="evenodd" clip-rule="evenodd" d="M137.22 0.474543C138.059 0.252725 140.517 0.409088 138.717 0.474543C138.181 0.492725 138.175 0.421815 137.22 0.474543Z" fill="#055052"/>
</g>
<defs>
<clipPath id="clip0">
<rect width="234" height="10" fill="white"/>
</clipPath>
</defs>
</svg>
